Coordinates
version=1
nRows=32
nColumns=22
inDegrees=yes

Units are S.I. units (second, meters, Newtons, ...)
If the header above contains a line with 'inDegrees', this indicates whether rotational values are in degrees (yes) or radians (no).

endheader
time	pelvis_tilt	pelvis_list	pelvis_rotation	pelvis_tx	pelvis_ty	pelvis_tz	hip_flexion_r	hip_adduction_r	hip_rotation_r	knee_angle_r	ankle_angle_r	subtalar_angle_r	hip_flexion_l	hip_adduction_l	hip_rotation_l	knee_angle_l	ankle_angle_l	subtalar_angle_l	lumbar_extension	lumbar_bending	lumbar_rotation
      2.91000000	      4.22485948	      1.58784282	    -55.25766405	     -0.08093234	      0.90174929	      0.12803544	      9.09260012	     -3.97594225	     12.24247879	    -67.85379313	    -10.85983994	     -2.00753140	     14.99704472	     -4.26696066	    -14.10863104	    -29.51989426	      7.48971159	      2.69993335	     -7.64058316	     -7.19620220	     -2.40321712
      2.92000000	      4.31215537	      1.55503509	    -56.11676695	     -0.07436153	      0.90306788	      0.13216024	     10.95457831	     -3.65275333	     12.19677592	    -70.00380707	    -10.78239103	     -1.67077966	     14.04619366	     -4.04556248	    -14.92139822	    -29.10479962	      7.88433290	      2.51752289	     -7.88462261	     -7.27768024	     -3.11363837
      2.93000000	      4.33885997	      1.42618300	    -56.91677066	     -0.06790470	      0.90448633	      0.13638811	     12.67091582	     -3.17427659	     12.04599116	    -71.79712927	    -10.50386745	     -1.46044386	     13.04071376	     -3.90078886	    -15.63896852	    -28.63942354	      8.28851147	      2.38527123	     -8.17002020	     -7.24289051	     -3.85965360
      2.94000000	      4.32167626	      1.21441104	    -57.62569004	     -0.06154043	      0.90596440	      0.14063774	     14.24458560	     -2.59103921	     11.74723954	    -73.24804772	    -10.08225776	     -1.33819595	     12.02289267	     -3.81728633	    -16.25654178	    -28.20300751	      8.68894359	      2.28788478	     -8.51462860	     -7.11404912	     -4.66106216
      2.95000000	      4.24888288	      0.96483320	    -58.29087685	     -0.05524088	      0.90748793	      0.14501107	     15.71684690	     -1.93546693	     11.32677729	    -74.33951230	     -9.58611561	     -1.25209825	     10.98767099	     -3.78806294	    -16.86351040	    -27.72262123	      9.02046871	      2.16858754	     -8.84005391	     -6.91169496	     -5.44335412
      2.96000000	      4.14106579	      0.64969852	    -58.91072958	     -0.04901736	      0.90908750	      0.14946736	     17.04611903	     -1.21953548	     10.79196067	    -75.07089059	     -9.06853719	     -1.21468882	      9.90822552	     -3.81188122	    -17.45264637	    -27.22273078	      9.33037001	      2.00798118	     -9.20546300	     -6.63786792	     -6.21354966
      2.97000000	      3.99950947	      0.32915381	    -59.46070470	     -0.04277382	      0.91066306	      0.15399931	     18.28499078	     -0.51444369	     10.11228256	    -75.46691478	     -8.47790430	     -1.18053304	      8.82936932	     -3.84104401	    -17.97719383	    -26.68416941	      9.64632538	      1.92321575	     -9.53987318	     -6.32470539	     -6.96526374
      2.98000000	      3.84188215	     -0.07213582	    -59.97602912	     -0.03662212	      0.91234132	      0.15865916	     19.34676699	      0.23670858	      9.35705269	    -75.51616640	     -7.94517966	     -1.16718915	      7.65920196	     -3.91764747	    -18.49853329	    -26.09499775	      9.91489187	      1.81120870	     -9.93804747	     -5.96200650	     -7.68355431
      2.99000000	      3.67505004	     -0.43851003	    -60.45095380	     -0.03045179	      0.91392215	      0.16336708	     20.35484363	      0.91635166	      8.51064004	    -75.26795111	     -7.39255356	     -1.09701883	      6.51066234	     -3.96437142	    -19.01699089	    -25.46970902	     10.16080397	      1.73343338	    -10.28518162	     -5.60603340	     -8.35981131
      3.00000000	      3.50252500	     -0.78586062	    -60.89480851	     -0.02429523	      0.91540916	      0.16811708	     21.29301964	      1.53800302	      7.60244770	    -74.73442955	     -6.84990041	     -0.97447794	      5.37148867	     -3.99156371	    -19.53785924	    -24.81637812	     10.38010172	      1.66880752	    -10.60495562	     -5.25450616	     -8.98809885
      3.01000000	      3.32673370	     -1.10062253	    -61.30706734	     -0.01816935	      0.91676003	      0.17292499	     22.17265115	      2.09236020	      6.64200470	    -73.93407021	     -6.31807602	     -0.81148417	      4.25782415	     -3.99419994	    -20.05203446	    -24.14373212	     10.57432981	      1.61344876	    -10.88232105	     -4.92328744	     -9.57082152
      3.02000000	      3.15041040	     -1.37526726	    -61.68676196	     -0.01205429	      0.91794303	      0.17772849	     23.00343939	      2.56494755	      5.63805074	    -72.88205084	     -5.79470121	     -0.63046690	      3.19006904	     -3.96642853	    -20.55122550	    -23.47246192	     10.74808497	      1.56651019	    -11.12120060	     -4.60907029	    -10.11027711
      3.03000000	      2.97141639	     -1.60272961	    -62.02816036	     -0.00596232	      0.91892158	      0.18253049	     23.79342615	      2.95411928	      4.58814563	    -71.59373954	     -5.28271879	     -0.46241834	      2.18540559	     -3.91260017	    -21.02379421	    -22.81952700	     10.91193141	      1.52711013	    -11.31246137	     -4.31676110	    -10.61569689
      3.04000000	      2.79255712	     -1.78573374	    -62.33020908	      0.00010325	      0.91969423	      0.18731554	     24.53356358	      3.26120120	      3.49979228	    -70.07157604	     -4.78486986	     -0.33078380	      1.24961707	     -3.83550171	    -21.46062123	    -22.20004434	     11.07121758	      1.49648102	    -11.46629161	     -4.04434782	    -11.09166261
      3.05000000	      2.60766229	     -1.89559356	    -62.59317901	      0.00614614	      0.92019468	      0.19206984	     25.25667821	      3.47657284	      2.37194859	    -68.33392296	     -4.24717083	     -0.23881525	      0.42626859	     -3.73326116	    -21.85542625	    -21.64021862	     11.22138624	      1.47135558	    -11.55005427	     -3.79987764	    -11.52373173
      3.06000000	      2.43659995	     -2.04416018	    -62.81434723	      0.01214588	      0.92062205	      0.19685505	     25.82227573	      3.65163263	      1.20548785	    -66.34361267	     -3.84264520	     -0.23918940	     -0.42670740	     -3.64138396	    -22.21012569	    -21.09507302	     11.40856927	      1.46528155	    -11.69092072	     -3.54699681	    -11.97086595
      3.07000000	      2.26420694	     -2.13068031	    -63.00498542	      0.01812269	      0.92079466	      0.20165114	     26.34306218	      3.74983961	      0.00650342	    -64.13752103	     -3.39641005	     -0.28195558	     -1.17925440	     -3.53120303	    -22.52499880	    -20.62075120	     11.60366343	      1.46819655	    -11.77033959	     -3.31931916	    -12.38521777
      3.08000000	      2.09474147	     -2.20009042	    -63.17101941	      0.02406175	      0.92079248	      0.20650797	     26.75983681	      3.80371024	     -1.22475529	    -61.70078320	     -2.96822431	     -0.36532667	     -1.89142438	     -3.41969785	    -22.80236914	    -20.19487135	     11.81347216	      1.47935517	    -11.83548666	     -3.10149517	    -12.77340519
      3.09000000	      1.92853835	     -2.26897409	    -63.31365038	      0.02995659	      0.92065457	      0.21144893	     27.04623925	      3.83524236	     -2.48235365	    -59.02244913	     -2.56667015	     -0.48763712	     -2.58599064	     -3.31520539	    -23.04357816	    -19.80565240	     12.03729153	      1.50162934	    -11.90351182	     -2.88843754	    -13.13189198
      3.10000000	      1.77101335	     -2.32247762	    -63.43282887	      0.03581516	      0.92035108	      0.21649517	     27.21534717	      3.83169127	     -3.78739108	    -56.11936291	     -2.20083634	     -0.58350212	     -3.24322339	     -3.21183266	    -23.26689991	    -19.47559373	     12.29409923	      1.52500321	    -11.95714400	     -2.69093091	    -13.46731528
      3.11000000	      1.61345998	     -2.38373258	    -63.55179570	      0.04160770	      0.91992812	      0.22170794	     27.24063892	      3.84546728	     -5.10943423	    -52.98438695	     -1.88458926	     -0.67321854	     -3.90355248	     -3.11893840	    -23.45724563	    -19.16921001	     12.55909549	      1.55448241	    -12.00787978	     -2.49559780	    -13.77777558
      3.12000000	      1.46524073	     -2.43260770	    -63.65767554	      0.04733513	      0.91935733	      0.22707959	     27.14417091	      3.86100870	     -6.46469193	    -49.63788917	     -1.62541459	     -0.71725165	     -4.54165470	     -3.02688214	    -23.63756237	    -18.90465418	     12.84308032	      1.58508565	    -12.04166565	     -2.32032635	    -14.06790724
      3.13000000	      1.31869446	     -2.47866458	    -63.75460502	      0.05299124	      0.91865099	      0.23263920	     26.92179515	      3.90511907	     -7.85270826	    -46.09349867	     -1.42706844	     -0.71239673	     -5.16711492	     -2.94541392	    -23.78458168	    -18.67774085	     13.13395026	      1.61614579	    -12.05992306	     -2.15579303	    -14.32938842
      3.14000000	      1.20399659	     -2.54254489	    -63.86248484	      0.05856552	      0.91785371	      0.23841247	     26.55207527	      3.97733622	     -9.25019070	    -42.38366017	     -1.31787805	     -0.67582879	     -5.83666966	     -2.84569816	    -23.92434362	    -18.44940236	     13.43397141	      1.67939373	    -12.09814243	     -2.02231177	    -14.52685894
      3.15000000	      1.07408440	     -2.52913109	    -63.91626578	      0.06406286	      0.91678328	      0.24432659	     26.17621377	      4.06428737	    -10.69801964	    -38.56583900	     -1.25703786	     -0.54127865	     -6.36547970	     -2.76776438	    -24.03240885	    -18.34533332	     13.75801480	      1.69924192	    -12.03698802	     -1.91729967	    -14.80060104
      3.16000000	      0.98212182	     -2.52566412	    -63.97949629	      0.06945933	      0.91560889	      0.25046573	     25.69580529	      4.18976108	    -12.12571161	    -34.67779589	     -1.27301949	     -0.35677165	     -6.93401602	     -2.66591392	    -24.12448480	    -18.23946821	     14.07945962	      1.74345673	    -11.98768683	     -1.85660815	    -15.01273471
      3.17000000	      0.92859020	     -2.49036645	    -64.03804819	      0.07475562	      0.91426216	      0.25679626	     25.18642867	      4.33273361	    -13.50692668	    -30.80204481	     -1.33313849	     -0.11205399	     -7.48227085	     -2.53082832	    -24.20423436	    -18.16689843	     14.40282656	      1.80776012	    -11.90901515	     -1.86039063	    -15.21146027
      3.18000000	      0.91105077	     -2.41079249	    -64.08791862	      0.07995210	      0.91273346	      0.26329663	     24.68863903	      4.48740402	    -14.80317607	    -27.00837098	     -1.41824899	      0.18586334	     -7.99006392	     -2.36166614	    -24.26277062	    -18.13929418	     14.71149800	      1.88306569	    -11.78876299	     -1.92939296	    -15.40321980
      3.19000000	      0.96577772	     -2.32855815	    -64.15364291	      0.08503123	      0.91110442	      0.26997755	     24.17342314	      4.63933156	    -15.93513838	    -23.38471818	     -1.45624412	      0.58850120	     -8.53249401	     -2.13498041	    -24.31410957	    -18.12603302	     15.01003422	      2.01638410	    -11.69135662	     -2.08305899	    -15.55901849
      3.20000000	      1.03710166	     -2.17592244	    -64.20452278	      0.09004651	      0.90928214	      0.27678441	     23.76631805	      4.76953036	    -16.95081355	    -20.02363922	     -1.50551413	      0.97873492	     -8.98801971	     -1.88744418	    -24.35031844	    -18.17923776	     15.27772300	      2.13430187	    -11.51870250	     -2.28559098	    -15.72625728
      3.21000000	      1.13355060	     -1.97947145	    -64.25421059	      0.09501511	      0.90734395	      0.28371982	     23.45349203	      4.86876529	    -17.81143460	    -16.99646793	     -1.56068858	      1.31132243	     -9.40291248	     -1.61099376	    -24.35683882	    -18.26669315	     15.51710724	      2.24201951	    -11.30298409	     -2.52843587	    -15.89107636
      3.22000000	      1.27272568	     -1.81057866	    -64.31826312	      0.09993987	      0.90541843	      0.29080649	     23.16278174	      4.94020289	    -18.48057040	    -14.36359924	     -1.49976978	      1.67661320	     -9.86446212	     -1.31756534	    -24.34879511	    -18.37619541	     15.71615777	      2.39944199	    -11.13115325	     -2.79519074	    -16.02519665
